<svg xmlns="http://www.w3.org/2000/svg" viewBox="0 0 697.5 697.72"><defs><style>.cls-1{fill:#013660;}.cls-2{fill:#fff;}</style></defs><title>Asset 2</title><g id="Layer_2" data-name="Layer 2"><g id="Layer_2-2" data-name="Layer 2"><polygon class="cls-1" points="348.83 697.72 697.5 348.94 348.67 0 0 349 348.83 697.72"/><path class="cls-2" d="M230.62,299.16l0,12.39a30.2,30.2,0,0,0-7.15-7.63,31.67,31.67,0,0,0-13.91-5.74,40.79,40.79,0,0,0-14.49.22A49.64,49.64,0,0,0,169,313c-12.24,13.49-12.22,29.86-12.21,35.7s0,21.54,11.74,35.08c3,3.44,15,17.3,33.82,16.28,17.15-.93,27.43-13.5,29.13-15.65v13.77h29.91V299.07ZM224.68,367a22.69,22.69,0,0,1-12.81,5.83,21.63,21.63,0,0,1-13.84-3c-10.77-6.86-9.84-21.64-9.71-23.29a23.72,23.72,0,0,1,5.82-14.63,21.7,21.7,0,0,1,14.11-7.11,21.37,21.37,0,0,1,14.62,4.4,22.06,22.06,0,0,1,7.25,11C232.6,347.76,232.58,359.54,224.68,367Z"/><path class="cls-2" d="M335.75,364.25a1,1,0,0,1-.05.16,13.25,13.25,0,0,1-2.12,3.95,13.82,13.82,0,0,1-6.21,4.38,20.53,20.53,0,0,1-17.07-2.82c-2.7-2.17-3.83-4.73-4.94-7.34a36.23,36.23,0,0,1-2.65-16.37c.31-5,.6-9.7,3.92-14.4.86-1.22,4.42-6.24,10.87-7.76a14.66,14.66,0,0,1,3.95-.42c7.59.29,12.93,7.5,13.83,8.75,0,0,.17.24.44.72h33a40.86,40.86,0,0,0-3.63-10.32,45.43,45.43,0,0,0-17.78-18.48c-8.84-5.1-16.9-5.78-22-6.21a52.37,52.37,0,0,0-21.88,2.25,48.08,48.08,0,0,0-13.4,6.92,47,47,0,0,0-10.45,10.87c-7.94,11.62-7.91,24.13-7.9,30.34,0,8.17,0,20.24,8.33,31.75,8.58,11.92,20.69,15.86,25.54,17.36a53.54,53.54,0,0,0,29.35.56c4.72-1.25,16-4.24,24.56-14.53a45.73,45.73,0,0,0,8.75-17.79c.1-.35.19-.7.29-1l-32.69,0Z"/><path class="cls-2" d="M406.15,300.09h-30L376.3,399h30.3V343.57a15.31,15.31,0,0,1,1.24-8A16.48,16.48,0,0,1,416,327.8a20.29,20.29,0,0,1,10.37-2c2.23.12,7.7.42,12.05,4.51a19.6,19.6,0,0,1,5.07,8.79,22.29,22.29,0,0,1,.79,3.6V399h30.19V343.69a17.57,17.57,0,0,1,13.41-17.24c1.55-.43,9.21-2.55,16.11,2a18.54,18.54,0,0,1,8.11,15V399h30.53V335.13a37.61,37.61,0,0,0-2.82-12.62c-5.85-14.1-18.52-19.82-20.61-20.73-1.32-.57-17.44-7.24-33.91,1.13a40,40,0,0,0-13.52,11.26l-1.35,2.7-.68,1.24-.63-.72a34.7,34.7,0,0,0-5.06-6.86,35.68,35.68,0,0,0-12.69-8.48,42.94,42.94,0,0,0-15.26-3c-4.06-.06-10.16-.1-16.75,3.14a30,30,0,0,0-8.48,6.2,28,28,0,0,0-3.71,5l-.57,1.12-.36.5Z"/></g></g></svg>